<svg xmlns="http://www.w3.org/2000/svg" viewBox="0 0 24 24" id="scoreboard">
  <g>
    <path fill="#c4c4c6" d="M20 4H4a3 3 0 0 0-3 3v10a3 3 0 0 0 3 3h16a3 3 0 0 0 3-3V7a3 3 0 0 0-3-3ZM6 10a1 1 0 0 1 0-2h2a1 1 0 0 1 1 1v5.91a1 1 0 0 1-2 0V10Zm6 3a1 1 0 1 1-1 1 1 1 0 0 1 1-1Zm-1-3a1 1 0 1 1 1 1 1 1 0 0 1-1-1Zm8 4.91a1 1 0 1 1-2 0V10h-1a1 1 0 0 1 0-2h2a1 1 0 0 1 1 1Z"></path>
    <circle cx="12" cy="10" r="1" fill="#231f20"></circle>
    <circle cx="12" cy="14" r="1" fill="#231f20"></circle>
    <path fill="#231f20" d="M19 9v5.91a1 1 0 1 1-2 0V10h-1a1 1 0 0 1 0-2h2a1 1 0 0 1 1 1zM9 9v5.91a1 1 0 0 1-2 0V10H6a1 1 0 0 1 0-2h2a1 1 0 0 1 1 1z"></path>
  </g>
</svg>
